<svg id="SvgjsSvg1001" width="288" height="288" xmlns="http://www.w3.org/2000/svg" version="1.1" xmlns:xlink="http://www.w3.org/1999/xlink" xmlns:svgjs="http://svgjs.com/svgjs"><defs id="SvgjsDefs1002"></defs><g id="SvgjsG1008"><svg xmlns="http://www.w3.org/2000/svg" xmlns:xlink="http://www.w3.org/1999/xlink" viewBox="0 0 47 65" width="288" height="288"><defs><path id="a" d="M29.375,0 L4.40625,0 C1.9828125,0 0,1.99431818 0,4.43181818 L0,60.5681818 C0,63.0056818 1.9828125,65 4.40625,65 L42.59375,65 C45.0171875,65 47,63.0056818 47,60.5681818 L47,17.7272727 L29.375,0 Z"></path><path id="c" d="M29.375,0 L4.40625,0 C1.9828125,0 0,1.99431818 0,4.43181818 L0,60.5681818 C0,63.0056818 1.9828125,65 4.40625,65 L42.59375,65 C45.0171875,65 47,63.0056818 47,60.5681818 L47,17.7272727 L29.375,0 Z"></path><path id="f" d="M29.375,0 L4.40625,0 C1.9828125,0 0,1.99431818 0,4.43181818 L0,60.5681818 C0,63.0056818 1.9828125,65 4.40625,65 L42.59375,65 C45.0171875,65 47,63.0056818 47,60.5681818 L47,17.7272727 L29.375,0 Z"></path><path id="h" d="M29.375,0 L4.40625,0 C1.9828125,0 0,1.99431818 0,4.43181818 L0,60.5681818 C0,63.0056818 1.9828125,65 4.40625,65 L42.59375,65 C45.0171875,65 47,63.0056818 47,60.5681818 L47,17.7272727 L29.375,0 Z"></path><path id="j" d="M29.375,0 L4.40625,0 C1.9828125,0 0,1.99431818 0,4.43181818 L0,60.5681818 C0,63.0056818 1.9828125,65 4.40625,65 L42.59375,65 C45.0171875,65 47,63.0056818 47,60.5681818 L47,17.7272727 L29.375,0 Z"></path><path id="l" d="M29.375,0 L4.40625,0 C1.9828125,0 0,1.99431818 0,4.43181818 L0,60.5681818 C0,63.0056818 1.9828125,65 4.40625,65 L42.59375,65 C45.0171875,65 47,63.0056818 47,60.5681818 L47,17.7272727 L29.375,0 Z"></path><path id="n" d="M29.375,0 L4.40625,0 C1.9828125,0 0,1.99431818 0,4.43181818 L0,60.5681818 C0,63.0056818 1.9828125,65 4.40625,65 L42.59375,65 C45.0171875,65 47,63.0056818 47,60.5681818 L47,17.7272727 L29.375,0 Z"></path><radialGradient id="p" cx="3.168%" cy="2.717%" r="161.249%" fx="3.168%" fy="2.717%" gradientTransform="matrix(1 0 0 .72308 0 .008)"><stop offset="0%" stop-color="#ffffff" stop-opacity=".1" class="stopColorFFF svgShape"></stop><stop offset="100%" stop-color="#ffffff" stop-opacity="0" class="stopColorFFF svgShape"></stop></radialGradient><linearGradient id="d" x1="50.005%" x2="50.005%" y1="8.586%" y2="100.014%"><stop offset="0%" stop-color="#1a237e" stop-opacity=".2" class="stopColor1A237E svgShape"></stop><stop offset="100%" stop-color="#1a237e" stop-opacity=".02" class="stopColor1A237E svgShape"></stop></linearGradient></defs><g fill="none" fill-rule="evenodd"><mask id="b" fill="#fff"><use xlink:href="#a"></use></mask><path fill="#6772ff" fill-rule="nonzero" d="M29.375,0 L4.40625,0 C1.9828125,0 0,1.99431818 0,4.43181818 L0,60.5681818 C0,63.0056818 1.9828125,65 4.40625,65 L42.59375,65 C45.0171875,65 47,63.0056818 47,60.5681818 L47,17.7272727 L36.71875,10.3409091 L29.375,0 Z" mask="url(#b)" class="color4285F4 svgShape"></path><mask id="e" fill="#fff"><use xlink:href="#c"></use></mask><polygon fill="url(#d)" fill-rule="nonzero" points="30.664 16.431 47 32.858 47 17.727" mask="url(#e)"></polygon><mask id="g" fill="#fff"><use xlink:href="#f"></use></mask><path fill="#f1f1f1" fill-rule="nonzero" d="M11.75,47.2727273 L35.25,47.2727273 L35.25,44.3181818 L11.75,44.3181818 L11.75,47.2727273 Z M11.75,53.1818182 L29.375,53.1818182 L29.375,50.2272727 L11.75,50.2272727 L11.75,53.1818182 Z M11.75,32.5 L11.75,35.4545455 L35.25,35.4545455 L35.25,32.5 L11.75,32.5 Z M11.75,41.3636364 L35.25,41.3636364 L35.25,38.4090909 L11.75,38.4090909 L11.75,41.3636364 Z" mask="url(#g)" class="colorF1F1F1 svgShape"></path><g><mask id="i" fill="#fff"><use xlink:href="#h"></use></mask><g mask="url(#i)"><path fill="#4b2ef5" fill-rule="nonzero" d="M2.9375,2.95454545 L2.9375,16.25 C2.9375,18.6985795 4.90929688,20.6818182 7.34375,20.6818182 L20.5625,20.6818182 L2.9375,2.95454545 Z" transform="translate(26.438 -2.955)" class="colorA1C2FA svgShape"></path></g></g><g><mask id="k" fill="#fff"><use xlink:href="#j"></use></mask><path fill="#ffffff" fill-opacity=".2" fill-rule="nonzero" d="M4.40625,0 C1.9828125,0 0,1.99431818 0,4.43181818 L0,4.80113636 C0,2.36363636 1.9828125,0.369318182 4.40625,0.369318182 L29.375,0.369318182 L29.375,0 L4.40625,0 Z" mask="url(#k)" class="colorFFF svgShape"></path></g><g><mask id="m" fill="#fff"><use xlink:href="#l"></use></mask><path fill="#1a5d7e" fill-opacity=".2" fill-rule="nonzero" d="M42.59375,64.6306818 L4.40625,64.6306818 C1.9828125,64.6306818 0,62.6363636 0,60.1988636 L0,60.5681818 C0,63.0056818 1.9828125,65 4.40625,65 L42.59375,65 C45.0171875,65 47,63.0056818 47,60.5681818 L47,60.1988636 C47,62.6363636 45.0171875,64.6306818 42.59375,64.6306818 Z" mask="url(#m)" class="color1A237E svgShape"></path></g><g><mask id="o" fill="#fff"><use xlink:href="#n"></use></mask><path fill="#1a5d7e" fill-opacity=".1" fill-rule="nonzero" d="M33.78125,17.7272727 C31.3467969,17.7272727 29.375,15.7440341 29.375,13.2954545 L29.375,13.6647727 C29.375,16.1133523 31.3467969,18.0965909 33.78125,18.0965909 L47,18.0965909 L47,17.7272727 L33.78125,17.7272727 Z" mask="url(#o)" class="color1A237E svgShape"></path></g><path fill="url(#p)" fill-rule="nonzero" d="M29.375,0 L4.40625,0 C1.9828125,0 0,1.99431818 0,4.43181818 L0,60.5681818 C0,63.0056818 1.9828125,65 4.40625,65 L42.59375,65 C45.0171875,65 47,63.0056818 47,60.5681818 L47,17.7272727 L29.375,0 Z"></path></g></svg></g></svg>